<?xml version="1.0" encoding="UTF-8"?>
<svg width="32" height="32" viewBox="0 0 32 32" fill="none" xmlns="http://www.w3.org/2000/svg">
  <!-- Синий квадрат как фон (цвет как у Циана) -->
  <rect width="32" height="32" rx="4" fill="#0468FF"/>
  <!-- Белая буква "C" в стиле Циана -->
  <path d="M22 11.5C21.1667 10.5 20.0833 9.75 18.75 9.25C17.4167 8.75 16 8.5 14.5 8.5C13 8.5 11.5833 8.75 10.25 9.25C8.91667 9.75 7.83333 10.5 7 11.5C6.16667 12.5 5.75 13.6667 5.75 15V17C5.75 18.3333 6.16667 19.5 7 20.5C7.83333 21.5 8.91667 22.25 10.25 22.75C11.5833 23.25 13 23.5 14.5 23.5C16 23.5 17.4167 23.25 18.75 22.75C20.0833 22.25 21.1667 21.5 22 20.5C22.8333 19.5 23.25 18.3333 23.25 17V16H18.25V17C18.25 17.6667 18 18.25 17.5 18.75C17 19.25 16.3333 19.5 15.5 19.5C14.6667 19.5 14 19.25 13.5 18.75C13 18.25 12.75 17.6667 12.75 17V15C12.75 14.3333 13 13.75 13.5 13.25C14 12.75 14.6667 12.5 15.5 12.5C16.3333 12.5 17 12.75 17.5 13.25C18 13.75 18.25 14.3333 18.25 15H23.25C23.25 13.6667 22.8333 12.5 22 11.5Z" fill="white"/>
</svg>